<?xml version="1.0" encoding="UTF-8" standalone="no"?>
<!-- Created with Inkscape (http://www.inkscape.org/) -->

<svg
   width="3565.8125"
   height="428"
   viewBox="0 0 3565.8125 428"
   version="1.1"
   id="svg1"
   xml:space="preserve"
   xmlns="http://www.w3.org/2000/svg"
   xmlns:svg="http://www.w3.org/2000/svg"><defs
     id="defs1"><rect
       x="543.21234"
       y="75.308983"
       width="1924.7"
       height="572.8421"
       id="rect2" /><rect
       x="543.21234"
       y="75.308983"
       width="1924.7"
       height="572.8421"
       id="rect26" /></defs><g
     id="layer2"
     style="display:none"
     transform="translate(-36.125,-35.875)"><path
       id="path39"
       style="display:inline;opacity:1;fill:#e14a6d;fill-opacity:1;fill-rule:evenodd;stroke:none;stroke-width:0.194537;stroke-dasharray:none;stroke-opacity:1"
       d="m 250.125,49.875 a 200,200 0 0 0 -200,200 200,200 0 0 0 200,200 200,200 0 0 0 200,-200 200,200 0 0 0 -200,-200 z m 0,27.087891 a 172.84727,172.91135 0 0 1 8.48047,0.208984 172.84727,172.91135 0 0 1 8.46094,0.625 172.84727,172.91135 0 0 1 8.41992,1.039063 172.84727,172.91135 0 0 1 8.35937,1.449218 172.84727,172.91135 0 0 1 8.27735,1.861328 172.84727,172.91135 0 0 1 8.17773,2.261719 172.84727,172.91135 0 0 1 8.05469,2.664063 172.84727,172.91135 0 0 1 7.91601,3.052734 172.84727,172.91135 0 0 1 7.75586,3.439453 172.84727,172.91135 0 0 1 7.57813,3.816406 172.84727,172.91135 0 0 1 7.38086,4.183591 172.84727,172.91135 0 0 1 7.16797,4.53907 172.84727,172.91135 0 0 1 6.93554,4.88867 172.84727,172.91135 0 0 1 6.6875,5.2207 172.84727,172.91135 0 0 1 6.42383,5.54297 172.84727,172.91135 0 0 1 6.14453,5.85156 172.84727,172.91135 0 0 1 5.85157,6.14649 172.84727,172.91135 0 0 1 5.54101,6.42773 172.84727,172.91135 0 0 1 5.21875,6.68945 172.84727,172.91135 0 0 1 4.88477,6.93946 172.84727,172.91135 0 0 1 4.53906,7.16992 172.84727,172.91135 0 0 1 4.18164,7.38476 172.84727,172.91135 0 0 1 3.81445,7.58008 172.84727,172.91135 0 0 1 3.4375,7.75977 172.84727,172.91135 0 0 1 3.05469,7.91797 172.84727,172.91135 0 0 1 2.66016,8.05859 172.84727,172.91135 0 0 1 2.26367,8.17969 172.84727,172.91135 0 0 1 1.85742,8.28125 172.84727,172.91135 0 0 1 1.45117,8.36133 172.84727,172.91135 0 0 1 1.03906,8.42187 172.84727,172.91135 0 0 1 0.62305,8.46484 172.84727,172.91135 0 0 1 0.20899,8.48438 172.84727,172.91135 0 0 1 -1.75977,24.60742 172.84727,172.91135 0 0 1 -5.24219,24.10742 172.84727,172.91135 0 0 1 -8.61914,23.11524 172.84727,172.91135 0 0 1 -11.81836,21.65234 172.84727,172.91135 0 0 1 -14.77929,19.75 172.84727,172.91135 0 0 1 -17.4375,17.44531 172.84727,172.91135 0 0 1 -19.74219,14.78516 172.84727,172.91135 0 0 1 -21.64649,11.82227 172.84727,172.91135 0 0 1 -23.10546,8.62109 172.84727,172.91135 0 0 1 -24.09766,5.24414 172.84727,172.91135 0 0 1 -24.59961,1.76172 172.84727,172.91135 0 0 1 -24.59961,-1.76172 172.84727,172.91135 0 0 1 -24.09766,-5.24414 172.84727,172.91135 0 0 1 -23.10546,-8.62109 172.84727,172.91135 0 0 1 -21.64649,-11.82227 172.84727,172.91135 0 0 1 -19.74219,-14.78516 172.84727,172.91135 0 0 1 -17.4375,-17.44531 172.84727,172.91135 0 0 1 -14.77929,-19.75 172.84727,172.91135 0 0 1 -11.818362,-21.65234 172.84727,172.91135 0 0 1 -8.619141,-23.11524 172.84727,172.91135 0 0 1 -5.242188,-24.10742 172.84727,172.91135 0 0 1 -1.759765,-24.60742 172.84727,172.91135 0 0 1 1.759765,-24.60742 172.84727,172.91135 0 0 1 5.242188,-24.10742 172.84727,172.91135 0 0 1 8.619141,-23.11524 172.84727,172.91135 0 0 1 11.818362,-21.65234 172.84727,172.91135 0 0 1 14.77929,-19.75 172.84727,172.91135 0 0 1 17.4375,-17.44531 172.84727,172.91135 0 0 1 19.74219,-14.78516 172.84727,172.91135 0 0 1 21.64649,-11.822266 172.84727,172.91135 0 0 1 23.10546,-8.621094 172.84727,172.91135 0 0 1 24.09766,-5.244141 172.84727,172.91135 0 0 1 24.59961,-1.761718 z" /><rect
       style="display:inline;opacity:1;fill:#2f00eb;fill-opacity:0.71;fill-rule:evenodd;stroke:none;stroke-width:0.197661;stroke-dasharray:none;stroke-opacity:1"
       id="rect40"
       width="22"
       height="80"
       x="291.96457"
       y="193.34941"
       transform="rotate(38)" /><rect
       style="display:inline;fill:#2f00eb;fill-opacity:0.71;fill-rule:evenodd;stroke:none;stroke-width:0.197661;stroke-dasharray:none;stroke-opacity:1"
       id="rect40-1"
       width="22"
       height="80"
       x="385.28043"
       y="193.34941"
       transform="rotate(38)" /><rect
       style="display:inline;fill:#2f00eb;fill-opacity:0.71;fill-rule:evenodd;stroke:none;stroke-width:0.197661;stroke-dasharray:none;stroke-opacity:1"
       id="rect40-15"
       width="22"
       height="80"
       x="354.17514"
       y="193.34941"
       transform="rotate(38)" /><rect
       style="display:inline;fill:#2f00eb;fill-opacity:0.71;fill-rule:evenodd;stroke:none;stroke-width:0.197661;stroke-dasharray:none;stroke-opacity:1"
       id="rect40-7"
       width="22"
       height="80"
       x="323.06985"
       y="193.34941"
       transform="rotate(38)" /><path
       style="opacity:1;fill:#2f00eb;fill-opacity:0.71;fill-rule:evenodd;stroke:none;stroke-width:0.328128;stroke-dasharray:none;stroke-opacity:1"
       id="path46"
       d="M 375.10428,89.908817 A 203,203 0 0 1 453.125,249.875 h -203 z" /></g><g
     id="g17"
     style="display:none"
     transform="translate(-36.125,-35.875)"><text
       xml:space="preserve"
       id="text2"
       style="font-style:normal;font-variant:normal;font-weight:500;font-stretch:normal;font-size:303.391px;font-family:Montserrat;-inkscape-font-specification:'Montserrat Medium';letter-spacing:-5px;word-spacing:-10px;white-space:pre;shape-inside:url(#rect2);display:inline;fill:#e14a6d;fill-opacity:1"
       transform="matrix(1.7920945,0,0,1.7920945,-506.35989,-194.37929)"><tspan
         x="543.21289"
         y="354.15329"
         id="tspan3"><tspan
           style="font-weight:normal;-inkscape-font-specification:Montserrat"
           id="tspan2">PENSHOCK</tspan></tspan></text><g
       id="g18"><path
         id="path9"
         style="display:inline;opacity:1;fill:#e14a6d;fill-opacity:1;fill-rule:evenodd;stroke:none;stroke-width:0.194537;stroke-dasharray:none;stroke-opacity:1"
         d="m 250.125,35.875 a 214,214 0 0 0 -214,214 214,214 0 0 0 214,214 214,214 0 0 0 214,-214 214,214 0 0 0 -214,-214 z m 0,41.087891 a 172.84727,172.91135 0 0 1 8.48047,0.208984 172.84727,172.91135 0 0 1 8.46094,0.625 172.84727,172.91135 0 0 1 8.41992,1.039063 172.84727,172.91135 0 0 1 8.35937,1.449218 172.84727,172.91135 0 0 1 8.27735,1.861328 172.84727,172.91135 0 0 1 8.17773,2.261719 172.84727,172.91135 0 0 1 8.05469,2.664063 172.84727,172.91135 0 0 1 7.91601,3.052734 172.84727,172.91135 0 0 1 7.75586,3.439453 172.84727,172.91135 0 0 1 7.57813,3.816406 172.84727,172.91135 0 0 1 7.38086,4.183591 172.84727,172.91135 0 0 1 7.16797,4.53907 172.84727,172.91135 0 0 1 6.93554,4.88867 172.84727,172.91135 0 0 1 6.6875,5.2207 172.84727,172.91135 0 0 1 6.42383,5.54297 172.84727,172.91135 0 0 1 6.14453,5.85156 172.84727,172.91135 0 0 1 5.85157,6.14649 172.84727,172.91135 0 0 1 5.54101,6.42773 172.84727,172.91135 0 0 1 5.21875,6.68945 172.84727,172.91135 0 0 1 4.88477,6.93946 172.84727,172.91135 0 0 1 4.53906,7.16992 172.84727,172.91135 0 0 1 4.18164,7.38476 172.84727,172.91135 0 0 1 3.81445,7.58008 172.84727,172.91135 0 0 1 3.4375,7.75977 172.84727,172.91135 0 0 1 3.05469,7.91797 172.84727,172.91135 0 0 1 2.66016,8.05859 172.84727,172.91135 0 0 1 2.26367,8.17969 172.84727,172.91135 0 0 1 1.85742,8.28125 172.84727,172.91135 0 0 1 1.45117,8.36133 172.84727,172.91135 0 0 1 1.03906,8.42187 172.84727,172.91135 0 0 1 0.62305,8.46484 172.84727,172.91135 0 0 1 0.20899,8.48438 172.84727,172.91135 0 0 1 -1.75977,24.60742 172.84727,172.91135 0 0 1 -5.24219,24.10742 172.84727,172.91135 0 0 1 -8.61914,23.11524 172.84727,172.91135 0 0 1 -11.81836,21.65234 172.84727,172.91135 0 0 1 -14.77929,19.75 172.84727,172.91135 0 0 1 -17.4375,17.44531 172.84727,172.91135 0 0 1 -19.74219,14.78516 172.84727,172.91135 0 0 1 -21.64649,11.82227 172.84727,172.91135 0 0 1 -23.10546,8.62109 172.84727,172.91135 0 0 1 -24.09766,5.24414 172.84727,172.91135 0 0 1 -24.59961,1.76172 172.84727,172.91135 0 0 1 -24.59961,-1.76172 172.84727,172.91135 0 0 1 -24.09766,-5.24414 172.84727,172.91135 0 0 1 -23.10546,-8.62109 172.84727,172.91135 0 0 1 -21.64649,-11.82227 172.84727,172.91135 0 0 1 -19.74219,-14.78516 172.84727,172.91135 0 0 1 -17.4375,-17.44531 172.84727,172.91135 0 0 1 -14.77929,-19.75 172.84727,172.91135 0 0 1 -11.818362,-21.65234 172.84727,172.91135 0 0 1 -8.619141,-23.11524 172.84727,172.91135 0 0 1 -5.242188,-24.10742 172.84727,172.91135 0 0 1 -1.759765,-24.60742 172.84727,172.91135 0 0 1 1.759765,-24.60742 172.84727,172.91135 0 0 1 5.242188,-24.10742 172.84727,172.91135 0 0 1 8.619141,-23.11524 172.84727,172.91135 0 0 1 11.818362,-21.65234 172.84727,172.91135 0 0 1 14.77929,-19.75 172.84727,172.91135 0 0 1 17.4375,-17.44531 172.84727,172.91135 0 0 1 19.74219,-14.78516 172.84727,172.91135 0 0 1 21.64649,-11.822266 172.84727,172.91135 0 0 1 23.10546,-8.621094 172.84727,172.91135 0 0 1 24.09766,-5.244141 172.84727,172.91135 0 0 1 24.59961,-1.761718 z" /><rect
         style="display:inline;opacity:1;fill:#2f00eb;fill-opacity:0.71;fill-rule:evenodd;stroke:none;stroke-width:0.197661;stroke-dasharray:none;stroke-opacity:1"
         id="rect10"
         width="22"
         height="80"
         x="291.96457"
         y="193.34941"
         transform="rotate(38)" /><rect
         style="display:inline;fill:#2f00eb;fill-opacity:0.71;fill-rule:evenodd;stroke:none;stroke-width:0.197661;stroke-dasharray:none;stroke-opacity:1"
         id="rect11"
         width="22"
         height="80"
         x="385.28043"
         y="193.34941"
         transform="rotate(38)" /><rect
         style="display:inline;fill:#2f00eb;fill-opacity:0.71;fill-rule:evenodd;stroke:none;stroke-width:0.197661;stroke-dasharray:none;stroke-opacity:1"
         id="rect12"
         width="22"
         height="80"
         x="354.17514"
         y="193.34941"
         transform="rotate(38)" /><rect
         style="display:inline;fill:#2f00eb;fill-opacity:0.71;fill-rule:evenodd;stroke:none;stroke-width:0.197661;stroke-dasharray:none;stroke-opacity:1"
         id="rect13"
         width="22"
         height="80"
         x="323.06985"
         y="193.34941"
         transform="rotate(38)" /><rect
         style="display:inline;opacity:1;fill:#2f00eb;fill-opacity:0.71;fill-rule:evenodd;stroke:none;stroke-width:0.197661;stroke-dasharray:none;stroke-opacity:1"
         id="rect14"
         width="22"
         height="80"
         x="293.4642"
         y="-199.63161"
         transform="rotate(38)" /><rect
         style="display:inline;fill:#2f00eb;fill-opacity:0.71;fill-rule:evenodd;stroke:none;stroke-width:0.197661;stroke-dasharray:none;stroke-opacity:1"
         id="rect15"
         width="22"
         height="80"
         x="386.78006"
         y="-199.63161"
         transform="rotate(38)" /><rect
         style="display:inline;fill:#2f00eb;fill-opacity:0.71;fill-rule:evenodd;stroke:none;stroke-width:0.197661;stroke-dasharray:none;stroke-opacity:1"
         id="rect16"
         width="22"
         height="80"
         x="355.67477"
         y="-199.63161"
         transform="rotate(38)" /><rect
         style="display:inline;fill:#2f00eb;fill-opacity:0.71;fill-rule:evenodd;stroke:none;stroke-width:0.197661;stroke-dasharray:none;stroke-opacity:1"
         id="rect17"
         width="22"
         height="80"
         x="324.56949"
         y="-199.63161"
         transform="rotate(38)" /></g></g><g
     id="g26"
     style="display:inline"
     transform="translate(-36.125,-35.875)"><path
       id="text18"
       style="font-style:normal;font-variant:normal;font-weight:500;font-stretch:normal;font-size:303.391px;font-family:Montserrat;-inkscape-font-specification:'Montserrat Medium';letter-spacing:-5px;word-spacing:-10px;white-space:pre;shape-inside:url(#rect26);display:inline;fill:#e14a6d;fill-opacity:1"
       d="m 1290.331,139.95953 c -18.0012,0 -32.7662,2.73032 -44.295,8.19135 -11.5289,5.25878 -20.1249,12.33748 -25.7882,21.23694 -5.461,8.6972 -8.1914,18.30479 -8.1914,28.82233 0,11.32659 2.3264,20.52912 6.9784,27.60823 4.8542,6.87686 11.1239,12.43932 18.8098,16.68679 7.8882,4.24747 16.4842,7.6861 25.7882,10.31549 9.304,2.42712 18.6083,4.75348 27.9123,6.97835 9.304,2.22486 17.7982,4.85447 25.4841,7.88837 7.6859,2.83165 13.8548,6.77497 18.5068,11.83148 4.8543,5.05651 7.2814,11.73125 7.2814,20.02392 0,6.87686 -2.0221,13.14654 -6.0673,18.80983 -3.8429,5.66329 -10.0119,10.2142 -18.5068,13.65263 -8.2927,3.23616 -19.1133,4.85531 -32.4625,4.85531 -13.9559,0 -27.3054,-2.42817 -40.0478,-7.28242 -12.5402,-5.05651 -22.5528,-11.22547 -30.0365,-18.50685 l -8.7973,17.29384 c 7.8882,8.09042 19.012,14.76515 33.3725,20.02392 14.5628,5.05651 29.7328,7.58431 45.5091,7.58431 18.2035,0 33.0692,-2.62961 44.598,-7.88838 11.7311,-5.46103 20.4279,-12.53973 26.0912,-21.23693 5.6633,-8.89946 8.4954,-18.50705 8.4954,-28.82233 0,-11.12433 -2.4271,-20.12433 -7.2813,-27.00119 -4.652,-6.87685 -10.9217,-12.33859 -18.8098,-16.3838 -7.6859,-4.24747 -16.1813,-7.6861 -25.4852,-10.31549 -9.1018,-2.62939 -18.3043,-5.05646 -27.6083,-7.28133 -9.304,-2.22486 -17.9,-4.75266 -25.7881,-7.58431 -7.6859,-2.83164 -13.9567,-6.77605 -18.811,-11.83256 -4.652,-5.05652 -6.9783,-11.73125 -6.9783,-20.02393 0,-7.28138 1.9224,-13.75358 5.7653,-19.41687 4.0452,-5.86556 10.2142,-10.51718 18.5069,-13.95561 8.2927,-3.43843 18.81,-5.1572 31.5524,-5.1572 9.5062,0 19.3153,1.41552 29.4283,4.24717 10.3153,2.83165 20.0247,7.28074 29.1264,13.34856 l 7.5843,-17.8998 c -8.4949,-5.86555 -18.6083,-10.41646 -30.3394,-13.65263 -11.7311,-3.43842 -23.5633,-5.15719 -35.4966,-5.15719 z m 452.9747,0 c -16.1809,0 -31.0466,2.73032 -44.598,8.19135 -13.5515,5.25878 -25.3847,12.84326 -35.4977,22.75402 -9.9108,9.7085 -17.6978,21.13667 -23.3611,34.2836 -5.461,12.94467 -8.1914,27.20388 -8.1914,42.77794 0,15.57405 2.7304,29.93508 8.1914,43.08201 5.6633,12.94467 13.4503,24.37175 23.3611,34.28251 10.113,9.7085 21.9462,17.29298 35.4977,22.75401 13.7537,5.25877 28.6194,7.88838 44.598,7.88838 15.9785,0 30.7435,-2.62961 44.295,-7.88838 13.5514,-5.46103 25.2828,-13.04551 35.1936,-22.75401 10.113,-9.7085 17.9,-21.13558 23.3611,-34.28251 5.6633,-13.14693 8.4943,-27.50796 8.4943,-43.08201 0,-15.57406 -2.831,-29.93508 -8.4943,-43.08201 -5.4611,-13.14693 -13.2481,-24.57401 -23.3611,-34.28251 -9.9108,-9.7085 -21.6422,-17.19226 -35.1936,-22.45104 -13.5515,-5.46103 -28.3165,-8.19135 -44.295,-8.19135 z m 249.2424,0 c -15.9786,0 -30.7447,2.73032 -44.2961,8.19135 -13.5515,5.25878 -25.3836,12.74254 -35.4966,22.45104 -9.9108,9.7085 -17.6978,21.13558 -23.3611,34.28251 -5.461,13.14693 -8.1913,27.50795 -8.1913,43.08201 0,15.57405 2.7303,29.93508 8.1913,43.08201 5.6633,13.14693 13.4503,24.57401 23.3611,34.28251 9.9107,9.7085 21.6422,17.29298 35.1936,22.75401 13.5515,5.25877 28.3165,7.88838 44.295,7.88838 15.5741,0 30.1366,-2.62961 43.688,-7.88838 13.5515,-5.25877 24.9796,-13.04578 34.2836,-23.36106 l -14.2597,-14.25859 c -8.6972,8.89946 -18.3037,15.37167 -28.8212,19.41688 -10.5176,4.04521 -21.845,6.06723 -33.9806,6.06723 -12.7424,0 -24.5746,-2.12383 -35.4966,-6.3713 -10.9221,-4.44973 -20.4279,-10.61869 -28.5183,-18.50685 -8.0904,-8.09042 -14.4619,-17.39367 -19.1139,-27.91121 -4.4497,-10.71981 -6.6743,-22.45122 -6.6743,-35.19363 0,-12.74241 2.2246,-24.37202 6.6743,-34.88956 4.652,-10.71981 11.0235,-20.02415 19.1139,-27.91231 8.0904,-8.09041 17.5962,-14.25937 28.5183,-18.50684 10.922,-4.44973 22.7542,-6.67428 35.4966,-6.67428 12.1356,0 23.463,2.02202 33.9806,6.06723 10.5175,3.84295 20.124,10.21443 28.8212,19.11389 l 14.2597,-14.25967 c -9.304,-10.31529 -20.7321,-18.00048 -34.2836,-23.057 -13.5514,-5.25877 -28.0121,-7.88837 -43.3839,-7.88837 z m -1414.74865,1.82006 v 212.3737 h 22.45104 v -67.04903 h 57.03761 c 18.00118,0 33.47448,-2.93286 46.41915,-8.79841 12.94467,-5.86555 22.85442,-14.15834 29.73127,-24.87814 7.07912,-10.92207 10.61956,-23.86648 10.61956,-38.83375 0,-15.3718 -3.54044,-28.41802 -10.61956,-39.13782 -6.87685,-10.92207 -16.7866,-19.21485 -29.73127,-24.87815 -12.94467,-5.86555 -28.41797,-8.7984 -46.41915,-8.7984 z m 209.80056,0 v 212.3737 H 937.7789 V 334.73642 H 810.05104 v -78.8816 H 919.8791 v -19.1139 H 810.05104 v -75.54446 h 123.17662 v -19.41687 z m 197.96908,0 v 212.3737 h 22.45101 V 181.9386 l 136.5263,172.21469 h 18.5068 v -212.3737 h -22.148 V 314.02043 L 1004.0759,141.77959 Z m 423.24231,0 v 212.3737 h 22.451 V 256.1578 h 132.8851 v 97.99549 h 22.1481 v -212.3737 h -22.1481 v 94.65835 h -132.8851 v -94.65835 z m 704.3402,0 v 212.3737 h 22.451 v -55.86384 l 43.4667,-44.028 86.6883,99.89184 h 26.6982 l -98.1917,-116.09691 91.8204,-96.27679 h -25.7882 L 2135.6026,270.00224 V 141.77959 Z m -369.8459,18.20386 c 12.7424,0 24.4738,2.22455 35.1936,6.67428 10.9221,4.24747 20.3271,10.41643 28.2153,18.50684 8.0904,7.88816 14.3601,17.1925 18.8098,27.91231 4.4497,10.51754 6.6754,22.14715 6.6754,34.88956 0,12.74241 -2.2257,24.47382 -6.6754,35.19363 -4.4497,10.51754 -10.7194,19.82079 -18.8098,27.91121 -7.8882,7.88816 -17.2932,14.05712 -28.2153,18.50685 -10.7198,4.24747 -22.4512,6.3713 -35.1936,6.3713 -12.7424,0 -24.5746,-2.12383 -35.4967,-6.3713 -10.922,-4.44973 -20.4289,-10.61869 -28.5193,-18.50685 -7.8882,-8.09042 -14.1578,-17.49548 -18.8098,-28.21528 -4.4498,-10.71981 -6.6743,-22.34941 -6.6743,-34.88956 0,-12.74241 2.2245,-24.37202 6.6743,-34.88956 4.652,-10.71981 10.9216,-20.02415 18.8098,-27.91231 8.0904,-8.09041 17.5973,-14.25937 28.5193,-18.50684 10.9221,-4.44973 22.7543,-6.67428 35.4967,-6.67428 z m -1143.05521,1.21301 h 56.43056 c 21.23735,0 37.31714,4.65163 48.23921,13.95561 11.12432,9.30398 16.68678,22.45201 16.68678,39.44189 0,16.78761 -5.56246,29.83275 -16.68678,39.13673 -10.92207,9.10172 -27.00186,13.65262 -48.23921,13.65262 h -56.43056 z"
       transform="matrix(1.7920945,0,0,1.7920945,-506.35989,-194.37929)" /><g
       id="g25"><path
         id="path18"
         style="display:inline;opacity:1;fill:#e14a6d;fill-opacity:1;fill-rule:evenodd;stroke:none;stroke-width:0.194537;stroke-dasharray:none;stroke-opacity:1"
         d="m 250.125,35.875 a 214,214 0 0 0 -214,214 214,214 0 0 0 41.212891,125.36914 L 103.70117,341.49805 A 172.84727,172.91135 0 0 1 92.898438,321.70508 172.84727,172.91135 0 0 1 84.279297,298.58984 172.84727,172.91135 0 0 1 79.037109,274.48242 172.84727,172.91135 0 0 1 77.277344,249.875 a 172.84727,172.91135 0 0 1 1.759765,-24.60742 172.84727,172.91135 0 0 1 5.242188,-24.10742 172.84727,172.91135 0 0 1 8.619141,-23.11524 172.84727,172.91135 0 0 1 11.818362,-21.65234 172.84727,172.91135 0 0 1 14.77929,-19.75 172.84727,172.91135 0 0 1 17.4375,-17.44531 172.84727,172.91135 0 0 1 19.74219,-14.78516 172.84727,172.91135 0 0 1 21.64649,-11.822266 172.84727,172.91135 0 0 1 23.10546,-8.621094 172.84727,172.91135 0 0 1 24.09766,-5.244141 172.84727,172.91135 0 0 1 24.59961,-1.761718 172.84727,172.91135 0 0 1 8.48047,0.208984 172.84727,172.91135 0 0 1 8.46094,0.625 172.84727,172.91135 0 0 1 8.41992,1.039063 172.84727,172.91135 0 0 1 8.35937,1.449218 172.84727,172.91135 0 0 1 8.27735,1.861328 172.84727,172.91135 0 0 1 8.17773,2.261719 172.84727,172.91135 0 0 1 4.89844,1.621094 L 331.74023,52.056641 A 214,214 0 0 0 250.125,35.875 Z m 101.95703,25.880859 -25.75781,32.964844 a 172.84727,172.91135 0 0 1 5.28125,2.660156 172.84727,172.91135 0 0 1 2.9082,1.648438 L 360.0918,66.291016 a 214,214 0 0 0 -8.00977,-4.535157 z m 26.31055,16.847657 -25.30469,32.386714 a 172.84727,172.91135 0 0 1 0.002,0.002 172.84727,172.91135 0 0 1 6.6875,5.2207 172.84727,172.91135 0 0 1 0.46875,0.4043 l 25.32422,-32.412112 a 214,214 0 0 0 -7.17773,-5.601562 z m 23.50976,20.429687 -25.58398,32.746097 a 172.84727,172.91135 0 0 1 1.87891,1.97461 172.84727,172.91135 0 0 1 4.26757,4.94921 L 408.25,105.69922 a 214,214 0 0 0 -6.34766,-6.666017 z m 20.63672,24.109377 -26.57617,34.01758 a 172.84727,172.91135 0 0 1 2.41797,3.82031 172.84727,172.91135 0 0 1 4.18164,7.38476 172.84727,172.91135 0 0 1 3.81445,7.58008 172.84727,172.91135 0 0 1 3.4375,7.75977 172.84727,172.91135 0 0 1 3.05469,7.91797 172.84727,172.91135 0 0 1 2.66016,8.05859 172.84727,172.91135 0 0 1 2.26367,8.17969 172.84727,172.91135 0 0 1 1.85742,8.28125 172.84727,172.91135 0 0 1 1.45117,8.36133 172.84727,172.91135 0 0 1 1.03906,8.42187 172.84727,172.91135 0 0 1 0.62305,8.46484 172.84727,172.91135 0 0 1 0.20899,8.48438 172.84727,172.91135 0 0 1 -1.75977,24.60742 172.84727,172.91135 0 0 1 -5.24219,24.10742 172.84727,172.91135 0 0 1 -8.61914,23.11524 172.84727,172.91135 0 0 1 -11.81836,21.65234 172.84727,172.91135 0 0 1 -14.77929,19.75 172.84727,172.91135 0 0 1 -17.4375,17.44531 172.84727,172.91135 0 0 1 -19.74219,14.78516 172.84727,172.91135 0 0 1 -21.64649,11.82227 172.84727,172.91135 0 0 1 -23.10546,8.62109 172.84727,172.91135 0 0 1 -24.09766,5.24414 172.84727,172.91135 0 0 1 -24.59961,1.76172 172.84727,172.91135 0 0 1 -24.59961,-1.76172 172.84727,172.91135 0 0 1 -24.09766,-5.24414 172.84727,172.91135 0 0 1 -7.29882,-2.72266 l -26.46875,33.87891 a 214,214 0 0 0 82.46484,16.9375 214,214 0 0 0 214,-214 214,214 0 0 0 -41.58594,-126.73242 z M 117.16797,359.99609 91.380859,393.00195 a 214,214 0 0 0 6.486329,6.48633 l 25.443362,-32.56445 a 172.84727,172.91135 0 0 1 -3.81446,-3.81641 172.84727,172.91135 0 0 1 -2.32812,-3.11133 z m 22.06641,22.2793 -25.25391,32.32227 a 214,214 0 0 0 7.29101,5.45703 l 25.25196,-32.32031 a 172.84727,172.91135 0 0 1 -7.28906,-5.45899 z m 25.73046,17.58984 -25.58398,32.74219 a 214,214 0 0 0 8.10156,4.42383 l 25.58008,-32.74414 a 172.84727,172.91135 0 0 1 -8.09766,-4.42188 z" /><path
         style="display:inline;opacity:1;fill:#afe3fe;fill-opacity:1;fill-rule:evenodd;stroke:none;stroke-width:0.2;stroke-dasharray:none;stroke-opacity:1"
         d="M 279,112 254.5,232.5 H 328 L 221,388 245.5,267.5 H 172 Z"
         id="path134" /></g></g></svg>
