<?xml version="1.0" encoding="UTF-8" standalone="no"?>
<!-- Created with Inkscape (http://www.inkscape.org/) -->

<svg
   width="3551.8125"
   height="400"
   viewBox="0 0 3551.8125 400"
   version="1.1"
   id="svg1"
   xml:space="preserve"
   xmlns="http://www.w3.org/2000/svg"
   xmlns:svg="http://www.w3.org/2000/svg"><defs
     id="defs1"><rect
       x="543.21234"
       y="75.308983"
       width="1924.7"
       height="572.8421"
       id="rect2" /></defs><g
     id="layer2"
     style="display:none"
     transform="translate(-50.125,-49.875)"><path
       id="path39"
       style="display:inline;opacity:1;fill:#000000;fill-opacity:1;fill-rule:evenodd;stroke:none;stroke-width:0.194537;stroke-dasharray:none;stroke-opacity:1"
       d="m 250.125,49.875 a 200,200 0 0 0 -200,200 200,200 0 0 0 200,200 200,200 0 0 0 200,-200 200,200 0 0 0 -200,-200 z m 0,27.087891 a 172.84727,172.91135 0 0 1 8.48047,0.208984 172.84727,172.91135 0 0 1 8.46094,0.625 172.84727,172.91135 0 0 1 8.41992,1.039063 172.84727,172.91135 0 0 1 8.35937,1.449218 172.84727,172.91135 0 0 1 8.27735,1.861328 172.84727,172.91135 0 0 1 8.17773,2.261719 172.84727,172.91135 0 0 1 8.05469,2.664063 172.84727,172.91135 0 0 1 7.91601,3.052734 172.84727,172.91135 0 0 1 7.75586,3.439453 172.84727,172.91135 0 0 1 7.57813,3.816406 172.84727,172.91135 0 0 1 7.38086,4.183591 172.84727,172.91135 0 0 1 7.16797,4.53907 172.84727,172.91135 0 0 1 6.93554,4.88867 172.84727,172.91135 0 0 1 6.6875,5.2207 172.84727,172.91135 0 0 1 6.42383,5.54297 172.84727,172.91135 0 0 1 6.14453,5.85156 172.84727,172.91135 0 0 1 5.85157,6.14649 172.84727,172.91135 0 0 1 5.54101,6.42773 172.84727,172.91135 0 0 1 5.21875,6.68945 172.84727,172.91135 0 0 1 4.88477,6.93946 172.84727,172.91135 0 0 1 4.53906,7.16992 172.84727,172.91135 0 0 1 4.18164,7.38476 172.84727,172.91135 0 0 1 3.81445,7.58008 172.84727,172.91135 0 0 1 3.4375,7.75977 172.84727,172.91135 0 0 1 3.05469,7.91797 172.84727,172.91135 0 0 1 2.66016,8.05859 172.84727,172.91135 0 0 1 2.26367,8.17969 172.84727,172.91135 0 0 1 1.85742,8.28125 172.84727,172.91135 0 0 1 1.45117,8.36133 172.84727,172.91135 0 0 1 1.03906,8.42187 172.84727,172.91135 0 0 1 0.62305,8.46484 172.84727,172.91135 0 0 1 0.20899,8.48438 172.84727,172.91135 0 0 1 -1.75977,24.60742 172.84727,172.91135 0 0 1 -5.24219,24.10742 172.84727,172.91135 0 0 1 -8.61914,23.11524 172.84727,172.91135 0 0 1 -11.81836,21.65234 172.84727,172.91135 0 0 1 -14.77929,19.75 172.84727,172.91135 0 0 1 -17.4375,17.44531 172.84727,172.91135 0 0 1 -19.74219,14.78516 172.84727,172.91135 0 0 1 -21.64649,11.82227 172.84727,172.91135 0 0 1 -23.10546,8.62109 172.84727,172.91135 0 0 1 -24.09766,5.24414 172.84727,172.91135 0 0 1 -24.59961,1.76172 172.84727,172.91135 0 0 1 -24.59961,-1.76172 172.84727,172.91135 0 0 1 -24.09766,-5.24414 172.84727,172.91135 0 0 1 -23.10546,-8.62109 172.84727,172.91135 0 0 1 -21.64649,-11.82227 172.84727,172.91135 0 0 1 -19.74219,-14.78516 172.84727,172.91135 0 0 1 -17.4375,-17.44531 172.84727,172.91135 0 0 1 -14.77929,-19.75 172.84727,172.91135 0 0 1 -11.818362,-21.65234 172.84727,172.91135 0 0 1 -8.619141,-23.11524 172.84727,172.91135 0 0 1 -5.242188,-24.10742 172.84727,172.91135 0 0 1 -1.759765,-24.60742 172.84727,172.91135 0 0 1 1.759765,-24.60742 172.84727,172.91135 0 0 1 5.242188,-24.10742 172.84727,172.91135 0 0 1 8.619141,-23.11524 172.84727,172.91135 0 0 1 11.818362,-21.65234 172.84727,172.91135 0 0 1 14.77929,-19.75 172.84727,172.91135 0 0 1 17.4375,-17.44531 172.84727,172.91135 0 0 1 19.74219,-14.78516 172.84727,172.91135 0 0 1 21.64649,-11.822266 172.84727,172.91135 0 0 1 23.10546,-8.621094 172.84727,172.91135 0 0 1 24.09766,-5.244141 172.84727,172.91135 0 0 1 24.59961,-1.761718 z" /><rect
       style="display:inline;opacity:1;fill:#2f00eb;fill-opacity:0.71;fill-rule:evenodd;stroke:none;stroke-width:0.197661;stroke-dasharray:none;stroke-opacity:1"
       id="rect40"
       width="22"
       height="80"
       x="291.96457"
       y="193.34941"
       transform="rotate(38)" /><rect
       style="display:inline;fill:#2f00eb;fill-opacity:0.71;fill-rule:evenodd;stroke:none;stroke-width:0.197661;stroke-dasharray:none;stroke-opacity:1"
       id="rect40-1"
       width="22"
       height="80"
       x="385.28043"
       y="193.34941"
       transform="rotate(38)" /><rect
       style="display:inline;fill:#2f00eb;fill-opacity:0.71;fill-rule:evenodd;stroke:none;stroke-width:0.197661;stroke-dasharray:none;stroke-opacity:1"
       id="rect40-15"
       width="22"
       height="80"
       x="354.17514"
       y="193.34941"
       transform="rotate(38)" /><rect
       style="display:inline;fill:#2f00eb;fill-opacity:0.71;fill-rule:evenodd;stroke:none;stroke-width:0.197661;stroke-dasharray:none;stroke-opacity:1"
       id="rect40-7"
       width="22"
       height="80"
       x="323.06985"
       y="193.34941"
       transform="rotate(38)" /><path
       style="opacity:1;fill:#2f00eb;fill-opacity:0.71;fill-rule:evenodd;stroke:none;stroke-width:0.328128;stroke-dasharray:none;stroke-opacity:1"
       id="path46"
       d="M 375.10428,89.908817 A 203,203 0 0 1 453.125,249.875 h -203 z" /></g><g
     id="layer1"
     style="display:inline"
     transform="translate(-50.125,-49.875)"><path
       id="text2"
       style="font-style:normal;font-variant:normal;font-weight:500;font-stretch:normal;font-size:303.391px;font-family:Montserrat;-inkscape-font-specification:'Montserrat Medium';letter-spacing:-5px;word-spacing:-10px;white-space:pre;shape-inside:url(#rect2);display:inline;fill:#e14a6d;fill-opacity:1"
       d="m 1290.331,139.95953 c -18.0012,0 -32.7662,2.73032 -44.295,8.19135 -11.5289,5.25878 -20.1249,12.33748 -25.7882,21.23694 -5.461,8.6972 -8.1914,18.30479 -8.1914,28.82233 0,11.32659 2.3264,20.52912 6.9784,27.60823 4.8542,6.87686 11.1239,12.43932 18.8098,16.68679 7.8882,4.24747 16.4842,7.6861 25.7882,10.31549 9.304,2.42712 18.6083,4.75348 27.9123,6.97835 9.304,2.22486 17.7982,4.85447 25.4841,7.88837 7.6859,2.83165 13.8548,6.77497 18.5068,11.83148 4.8543,5.05651 7.2814,11.73125 7.2814,20.02392 0,6.87686 -2.0221,13.14654 -6.0673,18.80983 -3.8429,5.66329 -10.0119,10.2142 -18.5068,13.65263 -8.2927,3.23616 -19.1133,4.85531 -32.4625,4.85531 -13.9559,0 -27.3054,-2.42817 -40.0478,-7.28242 -12.5402,-5.05651 -22.5528,-11.22547 -30.0365,-18.50685 l -8.7973,17.29384 c 7.8882,8.09042 19.012,14.76515 33.3725,20.02392 14.5628,5.05651 29.7328,7.58431 45.5091,7.58431 18.2035,0 33.0692,-2.62961 44.598,-7.88838 11.7311,-5.46103 20.4279,-12.53973 26.0912,-21.23693 5.6633,-8.89946 8.4954,-18.50705 8.4954,-28.82233 0,-11.12433 -2.4271,-20.12433 -7.2813,-27.00119 -4.652,-6.87685 -10.9217,-12.33859 -18.8098,-16.3838 -7.6859,-4.24747 -16.1813,-7.6861 -25.4852,-10.31549 -9.1018,-2.62939 -18.3043,-5.05646 -27.6083,-7.28133 -9.304,-2.22486 -17.9,-4.75266 -25.7881,-7.58431 -7.6859,-2.83164 -13.9567,-6.77605 -18.811,-11.83256 -4.652,-5.05652 -6.9783,-11.73125 -6.9783,-20.02393 0,-7.28138 1.9224,-13.75358 5.7653,-19.41687 4.0452,-5.86556 10.2142,-10.51718 18.5069,-13.95561 8.2927,-3.43843 18.81,-5.1572 31.5524,-5.1572 9.5062,0 19.3153,1.41552 29.4283,4.24717 10.3153,2.83165 20.0247,7.28074 29.1264,13.34856 l 7.5843,-17.8998 c -8.4949,-5.86555 -18.6083,-10.41646 -30.3394,-13.65263 -11.7311,-3.43842 -23.5633,-5.15719 -35.4966,-5.15719 z m 452.9747,0 c -16.1809,0 -31.0466,2.73032 -44.598,8.19135 -13.5515,5.25878 -25.3847,12.84326 -35.4977,22.75402 -9.9108,9.7085 -17.6978,21.13667 -23.3611,34.2836 -5.461,12.94467 -8.1914,27.20388 -8.1914,42.77794 0,15.57405 2.7304,29.93508 8.1914,43.08201 5.6633,12.94467 13.4503,24.37175 23.3611,34.28251 10.113,9.7085 21.9462,17.29298 35.4977,22.75401 13.7537,5.25877 28.6194,7.88838 44.598,7.88838 15.9785,0 30.7435,-2.62961 44.295,-7.88838 13.5514,-5.46103 25.2828,-13.04551 35.1936,-22.75401 10.113,-9.7085 17.9,-21.13558 23.3611,-34.28251 5.6633,-13.14693 8.4943,-27.50796 8.4943,-43.08201 0,-15.57406 -2.831,-29.93508 -8.4943,-43.08201 -5.4611,-13.14693 -13.2481,-24.57401 -23.3611,-34.28251 -9.9108,-9.7085 -21.6422,-17.19226 -35.1936,-22.45104 -13.5515,-5.46103 -28.3165,-8.19135 -44.295,-8.19135 z m 249.2424,0 c -15.9786,0 -30.7447,2.73032 -44.2961,8.19135 -13.5515,5.25878 -25.3836,12.74254 -35.4966,22.45104 -9.9108,9.7085 -17.6978,21.13558 -23.3611,34.28251 -5.461,13.14693 -8.1913,27.50795 -8.1913,43.08201 0,15.57405 2.7303,29.93508 8.1913,43.08201 5.6633,13.14693 13.4503,24.57401 23.3611,34.28251 9.9107,9.7085 21.6422,17.29298 35.1936,22.75401 13.5515,5.25877 28.3165,7.88838 44.295,7.88838 15.5741,0 30.1366,-2.62961 43.688,-7.88838 13.5515,-5.25877 24.9796,-13.04578 34.2836,-23.36106 l -14.2597,-14.25859 c -8.6972,8.89946 -18.3037,15.37167 -28.8212,19.41688 -10.5176,4.04521 -21.845,6.06723 -33.9806,6.06723 -12.7424,0 -24.5746,-2.12383 -35.4966,-6.3713 -10.9221,-4.44973 -20.4279,-10.61869 -28.5183,-18.50685 -8.0904,-8.09042 -14.4619,-17.39367 -19.1139,-27.91121 -4.4497,-10.71981 -6.6743,-22.45122 -6.6743,-35.19363 0,-12.74241 2.2246,-24.37202 6.6743,-34.88956 4.652,-10.71981 11.0235,-20.02415 19.1139,-27.91231 8.0904,-8.09041 17.5962,-14.25937 28.5183,-18.50684 10.922,-4.44973 22.7542,-6.67428 35.4966,-6.67428 12.1356,0 23.463,2.02202 33.9806,6.06723 10.5175,3.84295 20.124,10.21443 28.8212,19.11389 l 14.2597,-14.25967 c -9.304,-10.31529 -20.7321,-18.00048 -34.2836,-23.057 -13.5514,-5.25877 -28.0121,-7.88837 -43.3839,-7.88837 z m -1414.74865,1.82006 v 212.3737 h 22.45104 v -67.04903 h 57.03761 c 18.00118,0 33.47448,-2.93286 46.41915,-8.79841 12.94467,-5.86555 22.85442,-14.15834 29.73127,-24.87814 7.07912,-10.92207 10.61956,-23.86648 10.61956,-38.83375 0,-15.3718 -3.54044,-28.41802 -10.61956,-39.13782 -6.87685,-10.92207 -16.7866,-19.21485 -29.73127,-24.87815 -12.94467,-5.86555 -28.41797,-8.7984 -46.41915,-8.7984 z m 209.80056,0 v 212.3737 H 937.7789 V 334.73642 H 810.05104 v -78.8816 H 919.8791 v -19.1139 H 810.05104 v -75.54446 h 123.17662 v -19.41687 z m 197.96908,0 v 212.3737 h 22.45101 V 181.9386 l 136.5263,172.21469 h 18.5068 v -212.3737 h -22.148 V 314.02043 L 1004.0759,141.77959 Z m 423.24231,0 v 212.3737 h 22.451 V 256.1578 h 132.8851 v 97.99549 h 22.1481 v -212.3737 h -22.1481 v 94.65835 h -132.8851 v -94.65835 z m 704.3402,0 v 212.3737 h 22.451 v -55.86384 l 43.4667,-44.028 86.6883,99.89184 h 26.6982 l -98.1917,-116.09691 91.8204,-96.27679 h -25.7882 L 2135.6026,270.00224 V 141.77959 Z m -369.8459,18.20386 c 12.7424,0 24.4738,2.22455 35.1936,6.67428 10.9221,4.24747 20.3271,10.41643 28.2153,18.50684 8.0904,7.88816 14.3601,17.1925 18.8098,27.91231 4.4497,10.51754 6.6754,22.14715 6.6754,34.88956 0,12.74241 -2.2257,24.47382 -6.6754,35.19363 -4.4497,10.51754 -10.7194,19.82079 -18.8098,27.91121 -7.8882,7.88816 -17.2932,14.05712 -28.2153,18.50685 -10.7198,4.24747 -22.4512,6.3713 -35.1936,6.3713 -12.7424,0 -24.5746,-2.12383 -35.4967,-6.3713 -10.922,-4.44973 -20.4289,-10.61869 -28.5193,-18.50685 -7.8882,-8.09042 -14.1578,-17.49548 -18.8098,-28.21528 -4.4498,-10.71981 -6.6743,-22.34941 -6.6743,-34.88956 0,-12.74241 2.2245,-24.37202 6.6743,-34.88956 4.652,-10.71981 10.9216,-20.02415 18.8098,-27.91231 8.0904,-8.09041 17.5973,-14.25937 28.5193,-18.50684 10.9221,-4.44973 22.7543,-6.67428 35.4967,-6.67428 z m -1143.05521,1.21301 h 56.43056 c 21.23735,0 37.31714,4.65163 48.23921,13.95561 11.12432,9.30398 16.68678,22.45201 16.68678,39.44189 0,16.78761 -5.56246,29.83275 -16.68678,39.13673 -10.92207,9.10172 -27.00186,13.65262 -48.23921,13.65262 h -56.43056 z"
       transform="matrix(1.7920945,0,0,1.7920945,-506.35989,-194.37929)" /><g
       id="g134"><path
         id="path47"
         style="display:inline;opacity:1;fill:#e14a6d;fill-opacity:1;fill-rule:evenodd;stroke:none;stroke-width:0.194537;stroke-dasharray:none;stroke-opacity:1"
         d="m 250.125,49.875 c -110.45695,0 -200,89.54305 -200,200 0.136733,40.33129 12.463529,79.668 35.346275,112.85402 0.424759,0.61601 1.146318,0.63479 1.606995,0.0452 l 15.78877,-20.20849 c 0.46068,-0.58964 0.50896,-1.57971 0.11339,-2.21485 -3.738483,-6.00277 -7.10552,-12.22969 -10.081992,-18.64575 -3.41956,-7.48995 -6.299937,-15.21469 -8.619141,-23.11524 -2.318965,-7.90069 -4.070819,-15.957 -5.242188,-24.10742 -1.171518,-8.1501 -1.759602,-16.37349 -1.759765,-24.60742 1.63e-4,-8.23393 0.588247,-16.45732 1.759765,-24.60742 1.171369,-8.15042 2.923223,-16.20673 5.242188,-24.10742 2.319204,-7.90055 5.199581,-15.62529 8.619141,-23.11524 3.419095,-7.48973 7.368602,-14.72559 11.818362,-21.65234 4.45007,-6.92696 9.38907,-13.52709 14.77929,-19.75 5.38987,-6.22302 11.2172,-12.05296 17.4375,-17.44531 6.22043,-5.39234 12.81795,-10.3333 19.74219,-14.78516 6.9249,-4.451341 14.1588,-8.40215 21.64649,-11.822266 7.48681,-3.420351 15.20828,-6.301379 23.10546,-8.621094 7.89749,-2.31979 15.95054,-4.072296 24.09766,-5.244141 8.14748,-1.172449 16.36827,-1.761187 24.59961,-1.761718 2.82811,2.47e-4 5.65578,0.06993 8.48047,0.208984 2.825,0.13905 5.64616,0.347446 8.46094,0.625 2.81472,0.277388 5.6222,0.623847 8.41992,1.039063 2.79789,0.41458 5.58519,0.897798 8.35937,1.449218 2.77392,0.552601 5.53387,1.17323 8.27735,1.861328 2.744,0.686855 5.47073,1.440988 8.17773,2.261719 2.70628,0.821964 5.39199,1.710253 8.05469,2.664063 2.66324,0.952634 5.3027,1.970519 7.91601,3.052734 2.61303,1.082832 5.19909,2.229662 7.75586,3.439453 2.55688,1.209916 5.08368,2.482434 7.57813,3.816406 2.49413,1.333914 4.95516,2.728861 7.38086,4.183591 2.42609,1.45413 4.81613,2.96761 7.16797,4.53907 2.35148,1.57254 4.66403,3.20259 6.93554,4.88867 0.79898,0.60786 1.59264,1.22266 2.3809,1.84434 0.58753,0.46337 1.43396,0.36516 1.89463,-0.22448 l 15.01926,-19.224101 c 0.46067,-0.58964 0.35656,-1.441654 -0.23601,-1.898554 C 337.19307,64.536718 294.29034,49.896929 250.125,49.875 Z m 172.84233,201.35483 c -0.0611,7.78101 -0.64718,15.54954 -1.75444,23.25259 -1.17137,8.15042 -2.92322,16.20673 -5.24219,24.10742 -2.3192,7.90055 -5.19958,15.62529 -8.61914,23.11524 -3.41909,7.48973 -7.3686,14.72559 -11.81836,21.65234 -4.45007,6.92696 -9.38907,13.52709 -14.77929,19.75 -5.38987,6.22302 -11.2172,12.05296 -17.4375,17.44531 -6.22043,5.39234 -12.81795,10.3333 -19.74219,14.78516 -6.9249,4.45134 -14.1588,8.40215 -21.64649,11.82227 -7.48681,3.42035 -15.20828,6.30138 -23.10546,8.62109 -7.89749,2.31979 -15.95054,4.0723 -24.09766,5.24414 -8.14748,1.17245 -16.36827,1.76119 -24.59961,1.76172 -8.23134,-5.3e-4 -16.45213,-0.58927 -24.59961,-1.76172 -8.14712,-1.17184 -16.20017,-2.92435 -24.09766,-5.24414 -2.02649,-0.70432 -4.03966,-1.44632 -6.03846,-2.22559 -0.69715,-0.27179 -1.63381,-0.0191 -2.09447,0.57057 l -15.76538,20.17918 c -0.46066,0.58964 -0.2717,1.29489 0.42417,1.56996 22.98176,9.0845 47.45202,13.83263 72.17141,13.99963 110.00499,0 199.26687,-88.81177 199.99551,-198.64517 0.005,-0.74824 -0.60209,-1.35483 -1.35035,-1.35483 l -24.44266,0 c -0.74826,0 -1.3543,0.60659 -1.36017,1.35483 z m -306.63357,109.83383 -15.45853,19.78283 c -0.46072,0.5896 -0.41525,1.50624 0.10563,2.04343 1.50031,1.54728 3.02553,3.07021 4.57507,4.56819 0.53797,0.52007 1.35074,0.46039 1.81143,-0.12923 l 15.10903,-19.33745 c 0.46069,-0.58962 0.39831,-1.48949 -0.13475,-2.0146 -0.95965,-0.94534 -1.90823,-1.90187 -2.84555,-2.86941 -0.51305,-0.66982 -1.02119,-1.34339 -1.52438,-2.02065 -0.44625,-0.60062 -1.17723,-0.61271 -1.63795,-0.0231 z m 22.06646,22.27933 -14.6559,18.75738 c -0.46069,0.58962 -0.37298,1.46164 0.19957,1.94338 1.6323,1.37341 3.28647,2.72063 4.96187,4.04112 0.58767,0.46318 1.44033,0.35704 1.90099,-0.23261 l 14.8826,-19.05022 c 0.46066,-0.58965 0.33883,-1.41791 -0.26828,-1.8553 -1.73042,-1.24665 -3.43762,-2.52523 -5.12075,-3.83508 -0.59051,-0.45955 -1.43941,-0.35829 -1.9001,0.23133 z m 25.73043,17.58982 -14.91169,19.08359 c -0.46071,0.58961 -0.3227,1.39366 0.31128,1.79111 1.82562,1.14451 3.66962,2.25944 5.53127,3.34436 0.64649,0.37676 1.54628,0.20018 2.0069,-0.38949 l 15.16006,-19.40757 c 0.46062,-0.58967 0.29382,-1.34361 -0.36955,-1.68978 -1.92614,-1.00513 -3.83318,-2.0465 -5.72008,-3.12356 -0.64984,-0.37093 -1.54748,-0.19827 -2.00819,0.39134 z" /><path
         style="display:inline;opacity:1;fill:#afe3fe;fill-opacity:1;fill-rule:evenodd;stroke:none;stroke-width:0.2;stroke-dasharray:none;stroke-opacity:1"
         d="M 279,112 254.5,232.5 H 328 L 221,388 245.5,267.5 H 172 Z"
         id="path134" /></g></g></svg>
